<svg width="40.000000" height="41.349121" viewBox="0 0 40 41.3491" fill="none" xmlns="http://www.w3.org/2000/svg" xmlns:xlink="http://www.w3.org/1999/xlink">
	<desc>
			Created with Pixso.
	</desc>
	<defs/>
	<rect id="back" rx="20.000000" width="40.000000" height="41.349129" fill="#FF3E79" fill-opacity="1.000000"/>
	<path id="icon" d="M12 11.3704L28 11.3704C29.1001 11.3704 30 12.3008 30 13.4377L30 24.8088C30 25.946 29.1001 26.8762 28 26.8762L14 26.8762L10 32.0449L10.01 13.4377C10.01 12.3008 10.8999 11.3704 12 11.3704ZM15 17.5732L25 17.5732C25.55 17.5732 26 17.1082 26 16.5396C26 15.9712 25.55 15.5059 25 15.5059L15 15.5059C14.45 15.5059 14 15.9712 14 16.5396C14 17.1082 14.45 17.5732 15 17.5732ZM21 22.7419L15 22.7419C14.45 22.7419 14 22.2769 14 21.7083C14 21.1396 14.45 20.6746 15 20.6746L21 20.6746C21.55 20.6746 22 21.1396 22 21.7083C22 22.2769 21.55 22.7419 21 22.7419Z" clip-rule="evenodd" fill="#FFFFFF" fill-opacity="1.000000" fill-rule="evenodd"/>
	<mask id="mask0_964" mask-type="alpha" maskUnits="userSpaceOnUse" x="10.000000" y="11.370361" width="20.000000" height="20.674561">
		<path id="icon" d="M12 11.3704L28 11.3704C29.1001 11.3704 30 12.3008 30 13.4377L30 24.8088C30 25.946 29.1001 26.8762 28 26.8762L14 26.8762L10 32.0449L10.01 13.4377C10.01 12.3008 10.8999 11.3704 12 11.3704ZM15 17.5732L25 17.5732C25.55 17.5732 26 17.1082 26 16.5396C26 15.9712 25.55 15.5059 25 15.5059L15 15.5059C14.45 15.5059 14 15.9712 14 16.5396C14 17.1082 14.45 17.5732 15 17.5732ZM21 22.7419L15 22.7419C14.45 22.7419 14 22.2769 14 21.7083C14 21.1396 14.45 20.6746 15 20.6746L21 20.6746C21.55 20.6746 22 21.1396 22 21.7083C22 22.2769 21.55 22.7419 21 22.7419Z" clip-rule="evenodd" fill="#FFFFFF" fill-opacity="1.000000" fill-rule="evenodd"/>
	</mask>
</svg>
